<svg width="31" height="31" viewBox="0 0 31 31" fill="none" xmlns="http://www.w3.org/2000/svg">
<rect opacity="0.18" x="0.5" y="0.5" width="30" height="30" rx="9.5" fill="#53BF7A" stroke="black"/>
<path opacity="0.57" d="M9.27783 12.0624C9.27783 11.6597 9.60429 11.3333 10.007 11.3333V11.3333C10.4097 11.3333 10.7362 11.6597 10.7362 12.0624V19.5485C10.7362 19.9512 10.4097 20.2777 10.007 20.2777V20.2777C9.60429 20.2777 9.27783 19.9512 9.27783 19.5485V12.0624ZM11.4653 11.6978C11.4653 11.4965 11.6286 11.3333 11.8299 11.3333V11.3333C12.0313 11.3333 12.1945 11.4965 12.1945 11.6978V19.9131C12.1945 20.1145 12.0313 20.2777 11.8299 20.2777V20.2777C11.6286 20.2777 11.4653 20.1145 11.4653 19.9131V11.6978ZM12.9237 12.427C12.9237 11.8229 13.4134 11.3333 14.0174 11.3333V11.3333C14.6215 11.3333 15.1112 11.8229 15.1112 12.427V19.1839C15.1112 19.788 14.6215 20.2777 14.0174 20.2777V20.2777C13.4134 20.2777 12.9237 19.788 12.9237 19.1839V12.427ZM15.8403 11.6978C15.8403 11.4965 16.0036 11.3333 16.2049 11.3333V11.3333C16.4063 11.3333 16.5695 11.4965 16.5695 11.6978V19.9131C16.5695 20.1145 16.4063 20.2777 16.2049 20.2777V20.2777C16.0036 20.2777 15.8403 20.1145 15.8403 19.9131V11.6978ZM18.0278 12.0624C18.0278 11.6597 18.3543 11.3333 18.757 11.3333V11.3333C19.1597 11.3333 19.4862 11.6597 19.4862 12.0624V19.5485C19.4862 19.9512 19.1597 20.2777 18.757 20.2777V20.2777C18.3543 20.2777 18.0278 19.9512 18.0278 19.5485V12.0624ZM20.2153 11.6978C20.2153 11.4965 20.3786 11.3333 20.5799 11.3333V11.3333C20.7813 11.3333 20.9445 11.4965 20.9445 11.6978V19.9131C20.9445 20.1145 20.7813 20.2777 20.5799 20.2777V20.2777C20.3786 20.2777 20.2153 20.1145 20.2153 19.9131V11.6978Z" fill="black"/>
<path d="M10.6212 23H9.12222C8.52589 23 7.95398 22.8033 7.5323 22.4533C7.11063 22.1032 6.87374 21.6284 6.87374 21.1333V19.8889M19.9899 23H21.4889C22.0852 23 22.6571 22.8033 23.0788 22.4533C23.5005 22.1032 23.7374 21.6284 23.7374 21.1333V19.8889M23.7374 12.1111V10.8667C23.7374 10.3716 23.5005 9.8968 23.0788 9.54673C22.6571 9.19667 22.0852 9 21.4889 9H19.9899M10.6212 9H9.12222C8.82695 9 8.53456 9.04828 8.26176 9.14209C7.98897 9.2359 7.74109 9.3734 7.5323 9.54673C7.32351 9.72007 7.15789 9.92585 7.04489 10.1523C6.9319 10.3788 6.87374 10.6215 6.87374 10.8667V12.1111M5 16H25.6111" stroke="black" stroke-miterlimit="10" stroke-linecap="round" stroke-linejoin="round"/>
</svg>
