<svg width="380" height="380" viewBox="0 0 380 380" fill="none" xmlns="http://www.w3.org/2000/svg">
<rect opacity="0.18" x="0.5" y="0.5" width="379" height="379" rx="69.5" fill="white" stroke="black"/>
<path opacity="0.57" d="M102.005 125.821C102.005 123.612 103.796 121.821 106.005 121.821H120.13C122.34 121.821 124.13 123.612 124.13 125.821V253.821C124.13 256.03 122.34 257.821 120.13 257.821H106.005C103.796 257.821 102.005 256.03 102.005 253.821V125.821ZM135.193 125.821C135.193 123.612 136.984 121.821 139.193 121.821H142.255C144.465 121.821 146.255 123.612 146.255 125.821V253.821C146.255 256.03 144.465 257.821 142.255 257.821H139.193C136.984 257.821 135.193 256.03 135.193 253.821V125.821ZM157.318 125.821C157.318 123.612 159.109 121.821 161.318 121.821H186.505C188.715 121.821 190.505 123.612 190.505 125.821V253.821C190.505 256.03 188.715 257.821 186.505 257.821H161.318C159.109 257.821 157.318 256.03 157.318 253.821V125.821ZM201.568 125.821C201.568 123.612 203.359 121.821 205.568 121.821H208.63C210.84 121.821 212.63 123.612 212.63 125.821V253.821C212.63 256.03 210.84 257.821 208.63 257.821H205.568C203.359 257.821 201.568 256.03 201.568 253.821V125.821ZM234.755 125.821C234.755 123.612 236.546 121.821 238.755 121.821H252.88C255.09 121.821 256.88 123.612 256.88 125.821V253.821C256.88 256.03 255.09 257.821 252.88 257.821H238.755C236.546 257.821 234.755 256.03 234.755 253.821V125.821ZM267.943 125.821C267.943 123.612 269.734 121.821 271.943 121.821H275.005C277.215 121.821 279.005 123.612 279.005 125.821V253.821C279.005 256.03 277.215 257.821 275.005 257.821H271.943C269.734 257.821 267.943 256.03 267.943 253.821V125.821Z" fill="black"/>
<path d="M121.84 315H99.7828C91.008 315 82.5925 311.488 76.3878 305.237C70.183 298.986 66.6973 290.507 66.6973 281.667V259.444M259.696 315H281.753C290.528 315 298.943 311.488 305.148 305.237C311.353 298.986 314.839 290.507 314.839 281.667V259.444M314.839 120.556V98.3333C314.839 89.4928 311.353 81.0143 305.148 74.7631C298.943 68.5119 290.528 65 281.753 65H259.696M121.84 65H99.7828C95.4379 65 91.1356 65.8622 87.1215 67.5373C83.1074 69.2125 79.4601 71.6678 76.3878 74.7631C73.3155 77.8584 70.8785 81.533 69.2158 85.5772C67.5531 89.6214 66.6973 93.9559 66.6973 98.3333V120.556" stroke="#357E50" stroke-width="10" stroke-miterlimit="10" stroke-linecap="round" stroke-linejoin="round"/>
<path d="M65 190.185L315 190.185" stroke="#357E50" stroke-width="10" stroke-linecap="round"/>
</svg>
